<svg width="32" height="32" viewBox="0 0 32 32" fill="none" xmlns="http://www.w3.org/2000/svg">
  <rect width="32" height="32" fill="#2F2CF9"/>
  <g transform="scale(0.45) translate(8, 6)">
    <path d="M70.4752 20.829C69.3421 20.829 68.0651 20.8523 66.6406 20.8787C63.2574 20.9416 59.0494 21.0197 53.9434 20.829H35.4277C35.3489 20.829 35.2775 20.8351 35.1806 20.8452C30.5295 20.969 29.5533 23.7687 29.5533 26.0966V29.1145C29.5533 31.558 30.5988 34.4704 35.5778 34.4704H54.1975C67.3329 34.4704 70.8805 34.4531 70.8805 45.6763H22.4322C13.6191 45.6763 7.87333 47.351 4.40709 50.6717C4.37962 50.698 4.3496 50.7224 4.32247 50.7489C1.27269 53.7246 0.0222152 58.0029 0.0213753 63.5665L0.00138582 66.1806C0.00138582 66.1806 0.00138582 66.1809 0.00138582 66.1811L0 66.3713C0 74.9897 4.66321 85.2539 26.881 85.2539H58.018C76.4332 85.2539 85.7707 78.6032 85.7707 65.4864V33.4313C85.7707 26.9531 78.3373 20.829 70.4752 20.829ZM68.9445 69.5039C67.8204 70.4953 65.0302 71.6775 58.1215 71.6775H26.8191C24.363 71.6775 22.3903 71.6571 20.8243 71.5095C20.5482 71.4835 20.285 71.4534 20.0338 71.4188C19.4085 71.3328 18.8601 71.2177 18.3806 71.0659C18.1375 70.9891 17.9126 70.9022 17.7046 70.8049C17.6152 70.7632 17.529 70.7192 17.4458 70.6734C17.1465 70.5082 16.8847 70.3176 16.6625 70.094C16.0872 69.5148 15.7603 68.7249 15.629 67.648C15.5827 67.2689 15.5599 66.8554 15.5599 66.4018V64.0496C15.5599 63.2605 15.5623 62.4866 15.9284 61.803C16.665 60.4279 18.8851 59.4215 25.5664 59.4062H25.5679C25.6191 59.406 25.6665 59.4051 25.7181 59.4051H70.9288L70.9375 62.22C70.9375 65.9218 70.271 68.3683 68.9445 69.5039Z" fill="white"/>
  </g>
</svg>
